<svg>
    <defs>
        <g id="hpa-cart">
            <?xml version="1.0" ?><!DOCTYPE svg  PUBLIC '-//W3C//DTD SVG 1.1//EN'  'http://www.w3.org/Graphics/SVG/1.1/DTD/svg11.dtd'><svg id="Layer_1" style="enable-background:new 0 0 64 64;" version="1.1" viewBox="0 0 64 64" xml:space="preserve" xmlns="http://www.w3.org/2000/svg" xmlns:xlink="http://www.w3.org/1999/xlink"><style type="text/css">
	        .st0{fill:#134563;}
            </style><g><g id="Icon-Cart" transform="translate(76.000000, 478.000000)"><path class="st0" d="M-27.5-432.3h-
            
            30.3c-0.5,0-0.9-0.2-1.1-0.6c-0.3-0.4-0.3-0.9-0.1-1.3l2.6-6.6l-2.6-24.6h-8.4     v-2.8h9.6c0.7,0,1.3,0.5,1.4,1.2l2.8,26.1c0,0.2,0,0.4-0.1,0.7l-2,5h28.2V-432.3" id="Fill-110"/><path class="st0" d="M-54.7-439.2l-0.6-2.7l31.9-6.6v-11.3h-33v-2.8H-22c0.8,0,1.4,0.6,1.4,1.4v13.8     c0,0.7-0.5,1.2-1.1,1.3L-54.7-439.2" id="Fill-111"/><path class="st0" d="M-26.1-424c-3,0-5.5-2.5-5.5-5.5s2.5-5.5,5.5-5.5c3,0,5.5,2.5,5.5,5.5S-23.1-424-26.1-424     L-26.1-424z M-26.1-432.3c-1.5,0-2.8,1.2-2.8,2.8s1.2,2.8,2.8,2.8s2.8-1.2,2.8-2.8S-24.6-432.3-26.1-432.3L-26.1-432.3z" id="Fill-112"/><path class="st0" d="M-59.1-424c-3,0-5.5-2.5-5.5-5.5s2.5-5.5,5.5-5.5s5.5,2.5,5.5,5.5S-56.1-424-59.1-424     L-59.1-424z M-59.1-432.3c-1.5,0-2.8,1.2-2.8,2.8s1.2,2.8,2.8,2.8s2.8-1.2,2.8-2.8S-57.6-432.3-59.1-432.3L-59.1-432.3z" id="Fill-113"/></g></g></svg>
        </g>
        <g id="hpa-profile">
            <path d="M7.99 8C10.1964 8 11.985 6.20914 11.985 4C11.985 1.79086 10.1964 0 7.99 0C5.78362 0 3.995 1.79086 3.995 4C3.995 6.20914 5.78362 8 7.99 8Z" fill="blue"/>
            <path d="M14.8215 11.38C15.1694 11.5401 15.4641 11.7969 15.6704 12.12C15.8791 12.442 15.9933 12.8162 16 13.2V15.49V16H15.4906H0.509363H0V15.49V13.2C0.000731876 12.8181 0.107964 12.4441 0.309613 12.12C0.515896 11.7969 0.810577 11.5401 1.15855 11.38C3.31243 10.4409 5.64096 9.97049 7.99001 9.99999C10.3391 9.97049 12.6676 10.4409 14.8215 11.38Z" fill="blue"/>
        </g>
    </defs>
</svg>