<svg xmlns="http://www.w3.org/2000/svg" xmlns:xlink="http://www.w3.org/1999/xlink" width="65" height="65" viewBox="0 0 65 65">
  <defs>
    <clipPath id="clip-Mesa_de_trabajo_6">
      <rect width="65" height="65"/>
    </clipPath>
  </defs>
  <g id="Mesa_de_trabajo_6" data-name="Mesa de trabajo – 6" clip-path="url(#clip-Mesa_de_trabajo_6)">
    <g id="Grupo_6922" data-name="Grupo 6922" transform="translate(-60.177 -32.063)">
      <g id="Grupo_6913" data-name="Grupo 6913" transform="translate(63.27 45.063)">
        <g id="Grupo_6905" data-name="Grupo 6905" transform="translate(14.105)">
          <g id="Grupo_6900" data-name="Grupo 6900" transform="translate(0 1.584)">
            <path id="Trazado_4606" data-name="Trazado 4606" d="M104.2,55.229V49.118h3.622v.721h-2.959v1.868h2.772v.721h-2.772v2.08h3.076v.721Z" transform="translate(-104.198 -49.118)" fill="#004691"/>
          </g>
          <g id="Grupo_6901" data-name="Grupo 6901" transform="translate(4.843 1.584)">
            <path id="Trazado_4607" data-name="Trazado 4607" d="M116.594,55.229V49.118h.679l2.634,4.807V49.118h.634v6.111h-.679l-2.63-4.808v4.808Z" transform="translate(-116.594 -49.118)" fill="#004691"/>
          </g>
          <g id="Grupo_6902" data-name="Grupo 6902" transform="translate(9.742 1.584)">
            <path id="Trazado_4608" data-name="Trazado 4608" d="M131.079,55.229l-1.945-6.111h.717l1.307,4.439q.15.517.263,1,.117-.5.267-1l1.357-4.439h.675l-1.959,6.111Z" transform="translate(-129.134 -49.118)" fill="#004691"/>
          </g>
          <g id="Grupo_6903" data-name="Grupo 6903" transform="translate(15.281)">
            <path id="Trazado_4609" data-name="Trazado 4609" d="M143.312,46.23l.454-1.167h.8l-.75,1.167Zm.046,6.528V46.647h.663v6.111Z" transform="translate(-143.312 -45.063)" fill="#004691"/>
          </g>
          <g id="Grupo_6904" data-name="Grupo 6904" transform="translate(17.22 1.476)">
            <path id="Trazado_4610" data-name="Trazado 4610" d="M148.276,52.083a3.7,3.7,0,0,1,.688-2.4,2.129,2.129,0,0,1,1.713-.84,2.089,2.089,0,0,1,1.209.375,2.535,2.535,0,0,1,.865,1.09,4.165,4.165,0,0,1,.319,1.7,3.691,3.691,0,0,1-.617,2.214,2.141,2.141,0,0,1-3.564-.025A3.591,3.591,0,0,1,148.276,52.083Zm.684.011a2.746,2.746,0,0,0,.5,1.754,1.5,1.5,0,0,0,2.434-.006,2.956,2.956,0,0,0,.494-1.853,3.7,3.7,0,0,0-.254-1.41,1.734,1.734,0,0,0-.59-.761,1.436,1.436,0,0,0-.861-.286,1.5,1.5,0,0,0-1.236.626A3.145,3.145,0,0,0,148.96,52.094Z" transform="translate(-148.276 -48.84)" fill="#004691"/>
          </g>
        </g>
        <g id="Grupo_6912" data-name="Grupo 6912" transform="translate(0 11.188)">
          <g id="Grupo_6911" data-name="Grupo 6911">
            <g id="Grupo_6906" data-name="Grupo 6906" transform="translate(52.909 18.172)">
              <path id="Trazado_4611" data-name="Trazado 4611" d="M203.535,123.16a2.18,2.18,0,0,0,2.425,2.469,3.326,3.326,0,0,0,2.9-2.935,2.18,2.18,0,0,0-2.425-2.469A3.326,3.326,0,0,0,203.535,123.16Zm1.29-.113a1.714,1.714,0,0,1,1.493-1.513,1.124,1.124,0,0,1,1.25,1.273,1.713,1.713,0,0,1-1.493,1.512A1.123,1.123,0,0,1,204.825,123.047Z" transform="translate(-203.525 -120.215)" fill="#004691"/>
            </g>
            <g id="Grupo_6907" data-name="Grupo 6907" transform="translate(4.389 22.091)">
              <path id="Trazado_4612" data-name="Trazado 4612" d="M79.34,133.379A2.317,2.317,0,0,0,81.917,136a3.534,3.534,0,0,0,3.08-3.12,2.317,2.317,0,0,0-2.577-2.625A3.534,3.534,0,0,0,79.34,133.379Zm1.37-.12a1.821,1.821,0,0,1,1.587-1.608A1.194,1.194,0,0,1,83.626,133a1.821,1.821,0,0,1-1.587,1.607A1.194,1.194,0,0,1,80.711,133.259Z" transform="translate(-79.329 -130.248)" fill="#004691"/>
            </g>
            <g id="Grupo_6908" data-name="Grupo 6908">
              <path id="Trazado_4613" data-name="Trazado 4613" d="M68.183,95.42l-.084.958a.841.841,0,0,0,.935.952l2.7-.229a5.072,5.072,0,0,1,3.936-2.777,3.3,3.3,0,0,1,3.508,2.125l34.158-3.018,1.614-.141L116,93.2l3.811-.333.024,0,.161-.014.111-.009a5.072,5.072,0,0,1,3.936-2.777,3.3,3.3,0,0,1,3.508,2.125l.26-.023a1.96,1.96,0,0,0,1.708-1.73s.641-6.4.626-7.158c-.04-2.094-1.182-8.113-1.182-8.113-.183-.855-.563-1.532-1.429-1.456l-6.093.533a1.96,1.96,0,0,0-1.709,1.73L118.51,89.96l-3.294.288-1.614.141-44.3,3.9A1.283,1.283,0,0,0,68.183,95.42Zm54.154-18.154a.964.964,0,0,1,.84-.851l3-.263c.427-.037.614.3.7.716,0,0,.561,2.962.581,3.992a1.238,1.238,0,0,1-.041.469.965.965,0,0,1-.841.851l-3.936.344a.632.632,0,0,1-.7-.716Z" transform="translate(-68.094 -73.701)" fill="#004691"/>
            </g>
            <g id="Grupo_6909" data-name="Grupo 6909" transform="translate(5.538 23.257)">
              <path id="Trazado_4614" data-name="Trazado 4614" d="M84.11,133.239a1.38,1.38,0,0,1,1.535,1.563,2.1,2.1,0,0,1-1.834,1.858,1.379,1.379,0,0,1-1.535-1.563A2.1,2.1,0,0,1,84.11,133.239Z" transform="translate(-82.27 -133.233)" fill="#004691"/>
            </g>
            <g id="Grupo_6910" data-name="Grupo 6910" transform="translate(53.899 19.177)">
              <path id="Trazado_4615" data-name="Trazado 4615" d="M207.89,122.795a1.372,1.372,0,0,1,1.526,1.554,2.092,2.092,0,0,1-1.824,1.847,1.372,1.372,0,0,1-1.526-1.554A2.093,2.093,0,0,1,207.89,122.795Z" transform="translate(-206.06 -122.788)" fill="#004691"/>
            </g>
          </g>
        </g>
      </g>
      <g id="Grupo_6914" data-name="Grupo 6914" transform="translate(60.177 53.177)">
        <path id="Trazado_4616" data-name="Trazado 4616" d="M110.756,83.463,62.442,87.69a2.083,2.083,0,0,1-2.257-2.254l1.161-13.473a2.083,2.083,0,0,1,1.894-1.9l48.314-4.227a2.083,2.083,0,0,1,2.257,2.254L112.65,81.567A2.083,2.083,0,0,1,110.756,83.463Z" transform="translate(-60.177 -65.831)" fill="#e63027"/>
      </g>
      <g id="Grupo_6921" data-name="Grupo 6921" transform="translate(63.273 55.898)">
        <g id="Grupo_6915" data-name="Grupo 6915" transform="translate(0 3.387)">
          <path id="Trazado_4617" data-name="Trazado 4617" d="M76.35,86.118l-3.374.291.1-1.161a5.494,5.494,0,0,0,.024-1.365q-.072-.268-.432-.237a.52.52,0,0,0-.445.273A4.1,4.1,0,0,0,72,85.145l-.537,6.134a3.441,3.441,0,0,0,.014,1.123.358.358,0,0,0,.425.234.61.61,0,0,0,.528-.351,3.842,3.842,0,0,0,.237-1.211l.133-1.516-.681.059.17-1.942,3.951-.341-.6,6.861-2.121.183-.232-.889a3.011,3.011,0,0,1-.948.963,2.827,2.827,0,0,1-1.265.4,2.925,2.925,0,0,1-1.557-.269,2.349,2.349,0,0,1-1.039-.909,2.686,2.686,0,0,1-.371-1.218,14.8,14.8,0,0,1,.077-1.969l.332-3.8a13.35,13.35,0,0,1,.433-2.678,3.468,3.468,0,0,1,1.283-1.619,4.712,4.712,0,0,1,2.517-.9,4.172,4.172,0,0,1,2.409.388,2.215,2.215,0,0,1,1.15,1.315,7.069,7.069,0,0,1,.086,2.37Z" transform="translate(-68.102 -81.467)" fill="#f7f7f8"/>
        </g>
        <g id="Grupo_6916" data-name="Grupo 6916" transform="translate(9.078 2.861)">
          <path id="Trazado_4618" data-name="Trazado 4618" d="M92.458,80.46l2.389-.206a18.249,18.249,0,0,1,3.218-.1,1.774,1.774,0,0,1,1.3.809,3.767,3.767,0,0,1,.325,2.334,4.129,4.129,0,0,1-.552,2.038,2.406,2.406,0,0,1-1.537.743,2.09,2.09,0,0,1,1.29.54,1.571,1.571,0,0,1,.362.716,11.575,11.575,0,0,1-.081,1.883l-.295,3.371-3.134.27.372-4.247a2.717,2.717,0,0,0-.053-1.256q-.143-.23-.84-.171l-.5,5.763-3.375.291Zm3.183,1.9L95.392,85.2a1.694,1.694,0,0,0,.811-.222q.241-.174.316-1.018l.061-.7q.053-.608-.15-.779A1.141,1.141,0,0,0,95.64,82.356Z" transform="translate(-91.339 -80.119)" fill="#f7f7f8"/>
        </g>
        <g id="Grupo_6917" data-name="Grupo 6917" transform="translate(17.629 1.896)">
          <path id="Trazado_4619" data-name="Trazado 4619" d="M120.945,77.649l.811,12.615-3.448.3.02-2.282-1.207.1-.4,2.315-3.488.3,2.839-12.928Zm-2.508,8.372q-.066-2.149-.044-5.324-.837,3.716-1.118,5.424Z" transform="translate(-113.228 -77.649)" fill="#f7f7f8"/>
        </g>
        <g id="Grupo_6918" data-name="Grupo 6918" transform="translate(26.424 1.148)">
          <path id="Trazado_4620" data-name="Trazado 4620" d="M143.336,75.736l-.224,2.558-2,.173-.894,10.223-3.375.291.894-10.223-2,.172.224-2.558Z" transform="translate(-135.739 -75.736)" fill="#f7f7f8"/>
        </g>
        <g id="Grupo_6919" data-name="Grupo 6919" transform="translate(34.116 0.753)">
          <path id="Trazado_4621" data-name="Trazado 4621" d="M159.921,74.725,158.8,87.506l-3.375.291,1.118-12.781Z" transform="translate(-155.428 -74.725)" fill="#f7f7f8"/>
        </g>
        <g id="Grupo_6920" data-name="Grupo 6920" transform="translate(39.509)">
          <path id="Trazado_4622" data-name="Trazado 4622" d="M177.056,76.637l-3.134.27L174,75.96a1.732,1.732,0,0,0-.046-.834.374.374,0,0,0-.386-.147.625.625,0,0,0-.482.284,1.586,1.586,0,0,0-.221.756,1.913,1.913,0,0,0,.091.948,1.967,1.967,0,0,0,.885.7,7.463,7.463,0,0,1,2.649,1.917,4.448,4.448,0,0,1,.347,2.673,5.217,5.217,0,0,1-.5,2.04,3.232,3.232,0,0,1-1.349,1.194,5.641,5.641,0,0,1-2.2.625,4.456,4.456,0,0,1-2.268-.306,1.939,1.939,0,0,1-1.142-1.178,6.149,6.149,0,0,1-.1-2.192l.073-.837,3.134-.27-.136,1.555a1.9,1.9,0,0,0,.051.912.434.434,0,0,0,.452.165.675.675,0,0,0,.523-.3,1.659,1.659,0,0,0,.232-.788,2.143,2.143,0,0,0-.183-1.449,7.758,7.758,0,0,0-1.478-1.024,12.071,12.071,0,0,1-1.563-1.049,2.2,2.2,0,0,1-.587-.968,4.164,4.164,0,0,1-.122-1.651,5.107,5.107,0,0,1,.568-2.18,3.262,3.262,0,0,1,1.324-1.168,5.539,5.539,0,0,1,2.085-.56,5,5,0,0,1,2.2.225,1.818,1.818,0,0,1,1.135.949,5.189,5.189,0,0,1,.111,2.133Z" transform="translate(-169.233 -72.796)" fill="#f7f7f8"/>
        </g>
      </g>
    </g>
  </g>
</svg>
