<svg xmlns="http://www.w3.org/2000/svg" xmlns:xlink="http://www.w3.org/1999/xlink" width="65" height="65" viewBox="0 0 65 65">
  <defs>
    <clipPath id="clip-Mesa_de_trabajo_6">
      <rect width="65" height="65"/>
    </clipPath>
  </defs>
  <g id="Mesa_de_trabajo_6" data-name="Mesa de trabajo – 6" clip-path="url(#clip-Mesa_de_trabajo_6)">
    <g id="Grupo_6899" data-name="Grupo 6899" transform="translate(-339.281 -38.294)">
      <g id="Grupo_6898" data-name="Grupo 6898" transform="translate(342.281 43.294)">
        <g id="Grupo_6896" data-name="Grupo 6896" transform="translate(5.847)">
          <path id="Trazado_4593" data-name="Trazado 4593" d="M405.1,101.974a29.551,29.551,0,0,1-10.88,17.6,30.726,30.726,0,0,1-6.186,3.781c-10.936,5.2-23.76,3.15-31.151-5.628q-.451-.511-.878-1.052c-.493-.627-.944-1.274-1.366-1.935-.331-.054-.654-.12-.966-.2a24.634,24.634,0,0,0,1.768,2.582c9.065,11.53,26.609,12.861,39.185,2.972a30.269,30.269,0,0,0,11.22-18.383A4.608,4.608,0,0,1,405.1,101.974Z" transform="translate(-353.669 -71.713)" fill="#e63027"/>
          <path id="Trazado_4594" data-name="Trazado 4594" d="M371.7,49.4a1.832,1.832,0,0,1,.234.083l0,0c.018.008.035.02.052.029a1.842,1.842,0,0,1,.233.129,1.789,1.789,0,0,1,.142.122c10.622-7.548,24.391-7.057,32.5.967a21.092,21.092,0,0,1,1.746,1.95l.022.03.367,0,.405,0h.021c-.066-.086-.126-.175-.194-.261s-.126-.149-.188-.225-.115-.16-.176-.238a21.228,21.228,0,0,0-5.975-5.2c.593.3,1.17.638,1.738.989q1.013.627,1.966,1.357a23.858,23.858,0,0,1,3.879,3.737,1.8,1.8,0,0,1,1.068,1.382,24,24,0,0,1,3.835,8.519,4.2,4.2,0,0,1,.747.685c.05.058.1.125.162.2a24.636,24.636,0,0,0-4.859-10.764C400.554,41.6,383.55,40.1,371.039,49.321a1.845,1.845,0,0,1,.612.063Z" transform="translate(-362.12 -43.294)" fill="#e63027"/>
          <path id="Trazado_4595" data-name="Trazado 4595" d="M393.383,117.234a31.818,31.818,0,0,0,3.176-2.862,29.6,29.6,0,0,0,7.106-11.916c-.146-.016-.292-.039-.442-.067l-.124-.025c-.048-.01-.1-.017-.144-.029a27.693,27.693,0,0,1-3.433,7.163c-.43.642-.892,1.27-1.38,1.885a29.917,29.917,0,0,1-4.962,4.94c-9.762,7.676-22.608,8.212-31.194,2.034a20.939,20.939,0,0,1-3.494-3.166l-.106,0c-.111,0-.225.011-.335.011-.375,0-.74-.018-1.1-.048-.131-.011-.26-.025-.388-.041.056.074.108.15.166.224C364.972,125.822,381.382,126.67,393.383,117.234Z" transform="translate(-355.078 -72.02)" fill="#e63027"/>
          <path id="Trazado_4596" data-name="Trazado 4596" d="M447.309,73.733c.078.012.164.018.238.033.024,0,.044.012.067.016-.124-.683-.275-1.361-.463-2.029a21.586,21.586,0,0,0-1.639-4.142c-.012.064-.025.128-.037.192l-.173.9a21.478,21.478,0,0,1,1.584,4.975C447.035,73.688,447.172,73.711,447.309,73.733Z" transform="translate(-398.252 -55.126)" fill="#e63027"/>
          <path id="Trazado_4597" data-name="Trazado 4597" d="M370.38,63.018a9.117,9.117,0,0,1,2.1,2.761q-.027-2.076-.052-4.148v-.006a11.02,11.02,0,0,1,1.729-6.493,10.176,10.176,0,0,1,8.479-4.091h.014a10.487,10.487,0,0,1,8.411,3.946,8.322,8.322,0,0,1,.8,1.252,4.3,4.3,0,0,1,3.479-1.557,4.778,4.778,0,0,1,4.176,1.74,5.679,5.679,0,0,1,.871,1.9q.22-1.077.434-2.15a1.851,1.851,0,0,1,1.4-1.44c-7.439-9.025-21.746-9.883-32.706-2.1a1.87,1.87,0,0,1,.06.245q.371,2.69.763,5.373a1.854,1.854,0,0,1-1.429,2.077c-1.621.362-3.258.739-4.9,1.13A7.817,7.817,0,0,1,370.38,63.018Z" transform="translate(-358.704 -45.257)" fill="#e63027"/>
          <path id="Trazado_4598" data-name="Trazado 4598" d="M361.008,75.5l-.243.06.005.029C360.851,75.565,360.925,75.53,361.008,75.5Z" transform="translate(-357.121 -58.966)" fill="#e63027"/>
          <path id="Trazado_4599" data-name="Trazado 4599" d="M443.3,76.375a6.031,6.031,0,0,1,1.675-.264,20.316,20.316,0,0,0-.937-3.423Q443.672,74.525,443.3,76.375Z" transform="translate(-397.275 -57.595)" fill="#e63027"/>
          <path id="Trazado_4600" data-name="Trazado 4600" d="M394.908,106.509a28.484,28.484,0,0,0,9.558-13.476,4.3,4.3,0,0,1-1.155-.84,4.861,4.861,0,0,1-1.3-2.5q-.28,1.279-.569,2.557a1.852,1.852,0,0,1-1.707,1.444q-.928.051-1.857.106-.055,0-.109,0a1.854,1.854,0,0,1-1.8-2.278q.839-3.568,1.627-7.14a6.814,6.814,0,0,1-1.676.266,5.458,5.458,0,0,1-3.094-.642c.334,3.159.672,6.322,1.015,9.461a9.565,9.565,0,0,1-1.94,7.424c-1.743,1.873-5.074,3.147-8.724,3.359-.344.02-.685.03-1.021.03-3.908,0-7.232-1.318-8.824-3.543-.117-.172-.225-.355-.331-.543-.032.062-.061.124-.1.185-1.365,2.408-4.546,4.468-8.316,5.4a17.464,17.464,0,0,1-2.745.455C369.76,114.676,384.2,114.929,394.908,106.509Z" transform="translate(-357.643 -63.102)" fill="#e63027"/>
        </g>
        <g id="Grupo_6897" data-name="Grupo 6897" transform="translate(0 7.638)">
          <path id="Trazado_4601" data-name="Trazado 4601" d="M362,77.863c-.835-4.3-1.828-6.556-3.42-7.957a6.152,6.152,0,0,0-5.384-1.022,8.761,8.761,0,0,0-1.1.345,8.382,8.382,0,0,0-3.533,2.667c-.013-.12-.026-.241-.039-.361-.051-.46-.1-.92-.148-1.38-.02-.185-.04-.371-.06-.557q-.046-.427-.092-.854c-.007-.07-.015-.14-.022-.209s-.014-.126-.021-.189l0-.028c0-.045-.01-.09-.014-.136-.038-.361-.079-.722-.116-1.083-.025-.24-.053-.48-.078-.721.187-.047.372-.09.559-.137.282-.071.562-.137.843-.207l.063-.015.028-.007L349.5,66l.1-.025.673-.165.7-.17.481-.118.223-.055c2.1-.507,4.187-1,6.26-1.463q-.337-2.3-.655-4.609c-.015-.108-.031-.217-.046-.325-.021-.151-.044-.3-.065-.454-.281.063-.566.13-.848.194-.322.072-.645.147-.968.22l-.031.007-.047.011-.3.068-.015,0c-.331.076-.659.149-.99.226q-5.777,1.34-11.691,2.917c.051.722.113,1.441.166,2.163q.538,7.277,1.215,14.51c.335-.09.668-.176,1-.265l.558-.147.152-.04.043-.011.463-.122.162-.043.041-.011.2-.053.774-.2q1.456-.377,2.9-.744a2.7,2.7,0,0,1,2-2.548,2.022,2.022,0,0,1,1.1.036,1.437,1.437,0,0,1,.857.69c.5.816.5.86,1.209,4.824.572,4.082.572,4.082.344,4.759a2.185,2.185,0,0,1-1.621,1.465,2.256,2.256,0,0,1-2.03-.431,1.809,1.809,0,0,1-.24-.25,10.017,10.017,0,0,1-.853-2.814q-.139-.988-.275-1.978-1.7.428-3.4.873l-.678.179-.094.025-.225.06-.2.054-.4.105-.1.027-.117.031-.572.151c-.392.1-.783.206-1.176.312q.108,1,.219,2a15.524,15.524,0,0,0,.464,2.569,7.2,7.2,0,0,0,.857,1.9,5.386,5.386,0,0,0,1.763,1.689,6.469,6.469,0,0,0,1.023.5q.11.042.223.082c.029.01.057.022.086.032.126.043.258.08.389.116a8.861,8.861,0,0,0,1.371.262c.057.006.112.015.169.021s.144.011.215.016c.181.013.363.026.55.03a14.434,14.434,0,0,0,3.8-.454c3.231-.8,6.039-2.556,7.136-4.49a6.965,6.965,0,0,0,.715-1.967,17.819,17.819,0,0,0-.386-6.867C362.06,78.15,362.031,78.008,362,77.863Z" transform="translate(-342.281 -58.388)" fill="#004691"/>
          <path id="Trazado_4602" data-name="Trazado 4602" d="M401.255,66.769l-.023-.215a10.415,10.415,0,0,0-.221-1.288,10.592,10.592,0,0,0-1.68-3.869,8.03,8.03,0,0,0-.788-.864,8.42,8.42,0,0,0-4.438-2.2,9.894,9.894,0,0,0-1.729-.159,10.256,10.256,0,0,0-1.714.159q-.452.077-.883.194a7.615,7.615,0,0,0-4.374,2.957,9.279,9.279,0,0,0-1.388,5.406q.062,5.309.15,10.608c.021,1.348.035,2.7.057,4.045a13.709,13.709,0,0,0,.451,3.371,7.342,7.342,0,0,0,.947,2.178c1.354,1.892,4.55,2.953,8.23,2.741,3.1-.179,6.055-1.246,7.443-2.737a7.727,7.727,0,0,0,1.486-5.993Q402,73.941,401.255,66.769Zm-5.627,16.984a2.26,2.26,0,0,1-1.918.989c-1.557.079-2.313-.739-2.413-2.626q-.394-7.72-.747-15.455c-.1-2.366.488-3.328,2.015-3.347,1.358-.017,2.049.834,2.177,2.755q.521,7.63,1.081,15.245C395.946,82.974,395.917,83.23,395.628,83.753Z" transform="translate(-362.587 -58.17)" fill="#003a84"/>
          <path id="Trazado_4603" data-name="Trazado 4603" d="M448.551,87.378c-.056-.232-.115-.468-.182-.709a13.466,13.466,0,0,0-.648-1.9,3.335,3.335,0,0,0-.477-.815,2.393,2.393,0,0,0-.729-.578c-.074-.04-.151-.075-.231-.109-.043-.018-.085-.037-.129-.054-.073-.027-.15-.05-.228-.073q-.176-.052-.366-.089a5.209,5.209,0,0,0-.965-.09c-.059,0-.115,0-.174,0-1.5.034-2.342.59-2.413,1.581-.052.556.084,1.227.728,3.908a3.421,3.421,0,0,0,.9,1.941,2.565,2.565,0,0,0,.357.3,2.752,2.752,0,0,0,1.019.431c.055.012.11.024.168.034s.1.014.147.021q.187.025.391.037c.052,0,.1.007.158.009.172.006.35.007.542,0a4.839,4.839,0,0,0,1.427-.225,1.858,1.858,0,0,0,.551-.3,1.424,1.424,0,0,0,.493-.8A8.232,8.232,0,0,0,448.551,87.378Zm-2.326,2.128a.948.948,0,0,1-.175.023l-.019,0a.655.655,0,0,1-.307-.056.51.51,0,0,1-.142-.1.888.888,0,0,1-.18-.272,2.893,2.893,0,0,1-.163-.483q-.294-1.151-.586-2.3c-.055-.218-.111-.435-.166-.652-.174-.688-.138-.942.2-1a1.091,1.091,0,0,1,.164-.015c.384-.009.644.3.822.984l.006.024c.082.317.166.633.248.95l.141.539q.1.378.2.756l.126.481c.017.066.034.132.052.2C446.6,89.169,446.551,89.431,446.225,89.506Z" transform="translate(-390.798 -70.23)" fill="#003a84"/>
          <path id="Trazado_4604" data-name="Trazado 4604" d="M437.3,65.228l-.77.006-.9.007q-1.732,8.695-3.817,17.569.932-.055,1.864-.105,1.876-8.337,3.435-16.511C437.171,65.872,437.236,65.549,437.3,65.228Z" transform="translate(-385.841 -61.604)" fill="#003a84"/>
          <path id="Trazado_4605" data-name="Trazado 4605" d="M426.776,72.3a11.115,11.115,0,0,0-.336-3.274,7.831,7.831,0,0,0-.938-2.774,2.984,2.984,0,0,0-2.634-1c-1.406.045-2.262.623-2.379,1.637a5.418,5.418,0,0,0,.084,1.508c.056.392.138.891.252,1.553.047.274.1.574.158.907a3.368,3.368,0,0,0,.762,1.982,3,3,0,0,0,2.61.829C425.824,73.605,426.555,73.189,426.776,72.3Zm-2.708-.357c-.4.017-.575-.217-.71-.923q-.286-1.509-.568-3.018c-.145-.777-.064-1,.4-1.019.366-.012.594.274.729.978q.293,1.507.589,3.011C424.648,71.679,424.545,71.926,424.067,71.945Z" transform="translate(-380.32 -61.616)" fill="#003a84"/>
        </g>
      </g>
    </g>
  </g>
</svg>
