<svg xmlns="http://www.w3.org/2000/svg" xmlns:xlink="http://www.w3.org/1999/xlink" width="65" height="65" viewBox="0 0 65 65">
  <defs>
    <clipPath id="clip-Mesa_de_trabajo_6">
      <rect width="65" height="65"/>
    </clipPath>
  </defs>
  <g id="Mesa_de_trabajo_6" data-name="Mesa de trabajo – 6" clip-path="url(#clip-Mesa_de_trabajo_6)">
    <g id="Grupo_6983" data-name="Grupo 6983" transform="translate(-699.054 -38.159)">
      <g id="Grupo_6953" data-name="Grupo 6953" transform="translate(702.054 47.159)">
        <g id="Grupo_6927" data-name="Grupo 6927" transform="translate(37.693 12.318)">
          <path id="Trazado_4652" data-name="Trazado 4652" d="M765.439,67.979l-.071-.129c0,.053.008.1.008.157,0,.023,0,.045,0,.067h.069c0-.023,0-.045,0-.067S765.439,67.988,765.439,67.979Z" transform="translate(-765.368 -67.85)" fill="#171716"/>
        </g>
        <g id="Grupo_6928" data-name="Grupo 6928" transform="translate(21.957 12.516)">
          <path id="Trazado_4653" data-name="Trazado 4653" d="M738.937,68.208h.016c0-.009,0-.017,0-.026Z" transform="translate(-738.937 -68.182)" fill="#171716"/>
        </g>
        <g id="Grupo_6929" data-name="Grupo 6929" transform="translate(11.063 12.496)">
          <path id="Trazado_4654" data-name="Trazado 4654" d="M720.637,68.195h.028c0-.015,0-.03,0-.046Z" transform="translate(-720.637 -68.149)" fill="#171716"/>
        </g>
        <g id="Grupo_6930" data-name="Grupo 6930" transform="translate(11.058 12.317)">
          <path id="Trazado_4655" data-name="Trazado 4655" d="M720.658,68.006c0-.054.007-.1.008-.158l-.037.066c0,.031,0,.061,0,.092s0,.045,0,.067h0l.025-.046C720.659,68.02,720.658,68.013,720.658,68.006Z" transform="translate(-720.629 -67.848)" fill="#171716"/>
        </g>
        <g id="Grupo_6931" data-name="Grupo 6931" transform="translate(13.552)">
          <path id="Trazado_4656" data-name="Trazado 4656" d="M724.96,55l4.386-7.84h-.093l-4.435,7.926C724.864,55.055,724.913,55.028,724.96,55Z" transform="translate(-724.818 -47.159)" fill="#171716"/>
        </g>
        <g id="Grupo_6932" data-name="Grupo 6932" transform="translate(41.695)">
          <path id="Trazado_4657" data-name="Trazado 4657" d="M776.649,55.139l-4.465-7.98h-.093l4.415,7.89C776.554,55.08,776.6,55.108,776.649,55.139Z" transform="translate(-772.091 -47.159)" fill="#171716"/>
        </g>
        <g id="Grupo_6933" data-name="Grupo 6933" transform="translate(10.969 12.383)">
          <path id="Trazado_4658" data-name="Trazado 4658" d="M720.569,67.959l-.089.159h.09c0-.023,0-.045,0-.067S720.569,67.99,720.569,67.959Z" transform="translate(-720.48 -67.959)" fill="#171716"/>
        </g>
        <g id="Grupo_6934" data-name="Grupo 6934" transform="translate(48.598 12.542)">
          <path id="Trazado_4659" data-name="Trazado 4659" d="M783.894,68.226h-.176c0,.18-.012.359-.032.535a5.529,5.529,0,0,0,11.025-.535Z" transform="translate(-783.686 -68.226)" fill="#ba1416"/>
        </g>
        <g id="Grupo_6935" data-name="Grupo 6935" transform="translate(48.629 12.392)">
          <path id="Trazado_4660" data-name="Trazado 4660" d="M783.742,68.057c0,.023,0,.045,0,.067h.083l-.083-.149C783.738,68,783.742,68.029,783.742,68.057Z" transform="translate(-783.738 -67.975)" fill="#171716"/>
        </g>
        <g id="Grupo_6936" data-name="Grupo 6936" transform="translate(48.619 12.209)">
          <path id="Trazado_4661" data-name="Trazado 4661" d="M783.732,67.85l.083.149h.093l-.186-.333C783.725,67.728,783.73,67.788,783.732,67.85Z" transform="translate(-783.722 -67.667)" fill="#171716"/>
        </g>
        <g id="Grupo_6937" data-name="Grupo 6937" transform="translate(11.091 12.542)">
          <path id="Trazado_4662" data-name="Trazado 4662" d="M726.116,73.593a5.433,5.433,0,0,0,5.431-5.367H720.684A5.433,5.433,0,0,0,726.116,73.593Z" transform="translate(-720.684 -68.226)" fill="#003165"/>
        </g>
        <g id="Grupo_6938" data-name="Grupo 6938" transform="translate(11.087 7.84)">
          <path id="Trazado_4663" data-name="Trazado 4663" d="M720.686,64.8c0,.053-.008.1-.008.158,0,.007,0,.014,0,.021l2.605-4.656c-.047.029-.1.056-.142.086Z" transform="translate(-720.678 -60.328)" fill="#171716"/>
        </g>
        <g id="Grupo_6939" data-name="Grupo 6939" transform="translate(37.766 12.542)">
          <path id="Trazado_4664" data-name="Trazado 4664" d="M765.543,68.226h-.052a5.433,5.433,0,0,0,10.832.535c-.019-.176-.029-.354-.031-.535Z" transform="translate(-765.491 -68.226)" fill="#003165"/>
        </g>
        <g id="Grupo_6940" data-name="Grupo 6940" transform="translate(37.763 12.447)">
          <path id="Trazado_4665" data-name="Trazado 4665" d="M765.487,68.066c0,.01,0,.018,0,.028s0,.045,0,.067h.052Z" transform="translate(-765.486 -68.066)" fill="#171716"/>
        </g>
        <g id="Grupo_6941" data-name="Grupo 6941" transform="translate(41.788)">
          <path id="Trazado_4666" data-name="Trazado 4666" d="M790.082,59.562l-2.574-4.6-4.366-7.8H772.248l4.465,7.98L779.04,59.3c.005-.089.008-.179.017-.267.012.111.016.224.021.336l.186.333h10.818c0-.023,0-.045,0-.067S790.083,59.586,790.082,59.562Z" transform="translate(-772.248 -47.159)" fill="#e63027"/>
        </g>
        <g id="Grupo_6942" data-name="Grupo 6942" transform="translate(46.11 7.89)">
          <path id="Trazado_4667" data-name="Trazado 4667" d="M781.978,64.662,779.65,60.5c-.046-.032-.1-.06-.143-.09l2.463,4.4C781.972,64.764,781.975,64.713,781.978,64.662Z" transform="translate(-779.507 -60.413)" fill="#171716"/>
        </g>
        <g id="Grupo_6943" data-name="Grupo 6943" transform="translate(48.567 12.542)">
          <path id="Trazado_4668" data-name="Trazado 4668" d="M783.634,68.226c0,.18.012.359.031.535.019-.176.029-.354.032-.535Z" transform="translate(-783.634 -68.226)" fill="#171716"/>
        </g>
        <g id="Grupo_6944" data-name="Grupo 6944" transform="translate(48.58 11.873)">
          <path id="Trazado_4669" data-name="Trazado 4669" d="M783.7,67.438c-.005-.113-.01-.226-.021-.336-.009.088-.012.177-.017.267Z" transform="translate(-783.657 -67.102)" fill="#171716"/>
        </g>
        <g id="Grupo_6945" data-name="Grupo 6945" transform="translate(48.564 12.293)">
          <path id="Trazado_4670" data-name="Trazado 4670" d="M783.694,67.907l-.056-.1c0,.061-.009.12-.009.182,0,.023,0,.045,0,.067h.063c0-.023,0-.045,0-.067S783.694,67.935,783.694,67.907Z" transform="translate(-783.629 -67.808)" fill="#171716"/>
        </g>
        <g id="Grupo_6946" data-name="Grupo 6946" transform="translate(48.573 12.139)">
          <path id="Trazado_4671" data-name="Trazado 4671" d="M783.644,67.7l.056.1c0-.062-.007-.122-.009-.183l-.039-.07C783.649,67.6,783.646,67.652,783.644,67.7Z" transform="translate(-783.644 -67.55)" fill="#171716"/>
        </g>
        <g id="Grupo_6947" data-name="Grupo 6947" transform="translate(21.974 12.542)">
          <path id="Trazado_4672" data-name="Trazado 4672" d="M746.826,76.024a7.862,7.862,0,0,0,7.861-7.8H738.964A7.863,7.863,0,0,0,746.826,76.024Z" transform="translate(-738.964 -68.226)" fill="#ba1416"/>
        </g>
        <g id="Grupo_6948" data-name="Grupo 6948" transform="translate(21.972)">
          <path id="Trazado_4673" data-name="Trazado 4673" d="M754.682,59.477l-3.614-6.459-3.278-5.859h-1.825l-3.224,5.763-3.778,6.753c0,.009,0,.017,0,.026h15.723c0-.023,0-.045,0-.067C754.69,59.581,754.683,59.53,754.682,59.477Z" transform="translate(-738.962 -47.159)" fill="#e63027"/>
        </g>
        <g id="Grupo_6949" data-name="Grupo 6949" transform="translate(11.089)">
          <path id="Trazado_4674" data-name="Trazado 4674" d="M727.672,47.159,723.285,55l-2.605,4.656c0,.015,0,.03,0,.046h10.866l.015-.026,3.778-6.753,3.224-5.763Z" transform="translate(-720.68 -47.159)" fill="#004691"/>
        </g>
        <g id="Grupo_6950" data-name="Grupo 6950" transform="translate(30.8)">
          <path id="Trazado_4675" data-name="Trazado 4675" d="M771.563,59.452l-2.463-4.4-4.415-7.89h-10.9l3.279,5.859,3.614,6.459.071.129.054.1h10.749c0-.023,0-.045,0-.067C771.554,59.572,771.561,59.513,771.563,59.452Z" transform="translate(-753.79 -47.159)" fill="#004691"/>
        </g>
        <g id="Grupo_6951" data-name="Grupo 6951" transform="translate(0 12.474)">
          <path id="Trazado_4676" data-name="Trazado 4676" d="M702.054,68.113a5.53,5.53,0,0,0,11.059.067H702.128" transform="translate(-702.054 -68.113)" fill="#ba1416"/>
        </g>
        <g id="Grupo_6952" data-name="Grupo 6952" transform="translate(0.075 0)">
          <path id="Trazado_4677" data-name="Trazado 4677" d="M709.2,47.159l-4.29,7.667L702.179,59.7h10.895l.089-.159.037-.066,2.456-4.39,4.435-7.926Z" transform="translate(-702.179 -47.159)" fill="#e63027"/>
        </g>
      </g>
      <g id="Grupo_6982" data-name="Grupo 6982" transform="translate(707.559 65.721)">
        <path id="Trazado_4710" data-name="Trazado 4710" d="M744.229,108.241h-2.745a2.768,2.768,0,0,0,.2-1.014V89.947a2.8,2.8,0,0,0-2.8-2.8H725.27a2.8,2.8,0,0,0-2.8,2.8v19.187c.733.873,1.329-1.073,1.786,0V89.947a1.011,1.011,0,0,1,1.01-1.009h13.617a1.011,1.011,0,0,1,1.009,1.009v17.28a1.011,1.011,0,0,1-1.009,1.009h-4.934v1.791h10.276a.893.893,0,1,0,0-1.786Z" transform="translate(-715.823 -81.905)" fill="#004691"/>
        <path id="Trazado_4711" data-name="Trazado 4711" d="M713.287,80.985c0-1.46-.4-2.646-.893-2.646s-.893,1.185-.893,2.646v23.538a14.657,14.657,0,0,1,1.786,1.939Z" transform="translate(-711.382 -78.339)" fill="#004691"/>
        <path id="Trazado_5802" data-name="Trazado 5802" d="M713.287,80.985c0-1.46-.4-2.646-.893-2.646s-.893,1.185-.893,2.646v23.538a14.657,14.657,0,0,1,1.786,1.939Z" transform="translate(-664.947 -78.339)" fill="#004691"/>
        <path id="Trazado_5803" data-name="Trazado 5803" d="M1.791,4.572C1.791,2.114,1.391.119.9.119s-.95-.267-.893,0V47.447c.591.891,1.19-1.291,1.786,0Z" transform="translate(0 28.127) rotate(-90)" fill="#004691"/>
      </g>
    </g>
  </g>
</svg>
