<?xml version="1.0" encoding="UTF-8" standalone="no"?>
<svg
   xmlns:dc="http://purl.org/dc/elements/1.1/"
   xmlns:cc="http://creativecommons.org/ns#"
   xmlns:rdf="http://www.w3.org/1999/02/22-rdf-syntax-ns#"
   xmlns:svg="http://www.w3.org/2000/svg"
   xmlns="http://www.w3.org/2000/svg"
   id="svg2032"
   version="1.1"
   viewBox="0 0 21.161749 27.049549"
   height="27.049549mm"
   width="21.161749mm">
  <defs
     id="defs2026">
    <clipPath
       id="clipPath36"
       clipPathUnits="userSpaceOnUse">
      <path
         id="path34"
         d="M 0,500 H 500 V 0 H 0 Z" />
    </clipPath>
    <clipPath
       id="clipPath68"
       clipPathUnits="userSpaceOnUse">
      <path
         id="path66"
         d="M 0,500 H 500 V 0 H 0 Z" />
    </clipPath>
    <clipPath
       id="clipPath128"
       clipPathUnits="userSpaceOnUse">
      <path
         id="path126"
         d="M 0,500 H 500 V 0 H 0 Z" />
    </clipPath>
    <clipPath
       id="clipPath200"
       clipPathUnits="userSpaceOnUse">
      <path
         id="path198"
         d="M 0,500 H 500 V 0 H 0 Z" />
    </clipPath>
    <clipPath
       id="clipPath238"
       clipPathUnits="userSpaceOnUse">
      <path
         id="path236"
         d="M 0,500 H 500 V 0 H 0 Z" />
    </clipPath>
    <clipPath
       id="clipPath322"
       clipPathUnits="userSpaceOnUse">
      <path
         id="path320"
         d="M 0,500 H 500 V 0 H 0 Z" />
    </clipPath>
    <clipPath
       id="clipPath366"
       clipPathUnits="userSpaceOnUse">
      <path
         id="path364"
         d="M 0,500 H 500 V 0 H 0 Z" />
    </clipPath>
    <clipPath
       id="clipPath422"
       clipPathUnits="userSpaceOnUse">
      <path
         id="path420"
         d="M 0,500 H 500 V 0 H 0 Z" />
    </clipPath>
    <clipPath
       id="clipPath490"
       clipPathUnits="userSpaceOnUse">
      <path
         id="path488"
         d="M 0,500 H 500 V 0 H 0 Z" />
    </clipPath>
    <clipPath
       id="clipPath550"
       clipPathUnits="userSpaceOnUse">
      <path
         id="path548"
         d="M 0,500 H 500 V 0 H 0 Z" />
    </clipPath>
    <clipPath
       id="clipPath638"
       clipPathUnits="userSpaceOnUse">
      <path
         id="path636"
         d="M 0,500 H 500 V 0 H 0 Z" />
    </clipPath>
    <clipPath
       id="clipPath678"
       clipPathUnits="userSpaceOnUse">
      <path
         id="path676"
         d="M 0,500 H 500 V 0 H 0 Z" />
    </clipPath>
    <clipPath
       id="clipPath744"
       clipPathUnits="userSpaceOnUse">
      <path
         id="path742"
         d="M 0,500 H 500 V 0 H 0 Z" />
    </clipPath>
    <clipPath
       id="clipPath784"
       clipPathUnits="userSpaceOnUse">
      <path
         id="path782"
         d="M 0,500 H 500 V 0 H 0 Z" />
    </clipPath>
    <clipPath
       id="clipPath840"
       clipPathUnits="userSpaceOnUse">
      <path
         id="path838"
         d="M 0,500 H 500 V 0 H 0 Z" />
    </clipPath>
    <clipPath
       id="clipPath898"
       clipPathUnits="userSpaceOnUse">
      <path
         id="path896"
         d="M 0,500 H 500 V 0 H 0 Z" />
    </clipPath>
    <clipPath
       id="clipPath922"
       clipPathUnits="userSpaceOnUse">
      <path
         id="path920"
         d="M 0,500 H 500 V 0 H 0 Z" />
    </clipPath>
    <clipPath
       id="clipPath998"
       clipPathUnits="userSpaceOnUse">
      <path
         id="path996"
         d="M 0,500 H 500 V 0 H 0 Z" />
    </clipPath>
    <clipPath
       id="clipPath1046"
       clipPathUnits="userSpaceOnUse">
      <path
         id="path1044"
         d="M 0,500 H 500 V 0 H 0 Z" />
    </clipPath>
  </defs>
  <metadata
     id="metadata2029">
    <rdf:RDF>
      <cc:Work
         rdf:about="">
        <dc:format>image/svg+xml</dc:format>
        <dc:type
           rdf:resource="http://purl.org/dc/dcmitype/StillImage" />
        <dc:title></dc:title>
      </cc:Work>
    </rdf:RDF>
  </metadata>
  <g
     transform="translate(-269.10884,48.299631)"
     id="layer1">
    <g
       id="g5274"
       transform="matrix(0.35277777,0,0,-0.35277777,169.4213,4.3270312)">
      <g
         id="g1036"
         transform="translate(288.8135,94.8467)">
        <path
           d="M 0,0 28.983,-16.109 47.539,17.275 46.066,31.95 31.796,39.883 18.556,33.386 Z M 29.954,-19.51 -3.4,-0.971 16.751,35.284 31.868,42.703 48.424,33.501 50.105,16.746 Z"
           style="fill:#e2493c;fill-opacity:1;fill-rule:nonzero;stroke:none"
           id="path1038" />
      </g>
      <g
         id="g1040">
        <g
           id="g1042"
           clip-path="url(#clipPath1046)">
          <g
             id="g1048"
             transform="translate(324.0742,126.1113)">
            <path
               d="m 0,0 c -0.712,0 -1.368,-0.386 -1.713,-1.007 -0.254,-0.457 -0.314,-0.984 -0.171,-1.487 0.143,-0.503 0.474,-0.919 0.931,-1.173 0.923,-0.513 2.153,-0.152 2.66,0.76 0.523,0.942 0.183,2.136 -0.76,2.66 C 0.652,-0.083 0.334,0 0,0 m -0.006,-6.414 c -0.753,0 -1.501,0.194 -2.162,0.561 -1.04,0.579 -1.793,1.528 -2.12,2.672 -0.327,1.145 -0.189,2.348 0.39,3.389 C -3.112,1.622 -1.618,2.5 0,2.5 0.753,2.5 1.501,2.306 2.162,1.938 4.309,0.745 5.085,-1.974 3.893,-4.121 3.106,-5.536 1.612,-6.414 -0.006,-6.414"
               style="fill:#e2493c;fill-opacity:1;fill-rule:nonzero;stroke:none"
               id="path1050" />
          </g>
          <g
             id="g1052"
             transform="translate(305.7432,106.9795)">
            <path
               d="m 0,0 c -0.934,-1.68 0.216,-4.269 -0.68,-5.879 -0.895,-1.611 -3.253,-1.897 -4.865,-1.002 -2.315,1.287 -2.853,3.412 -2.221,4.55 0.632,1.138 3.076,1.038 3.943,0.556 0.162,-0.09 0.177,-0.223 0.102,-0.357 -0.068,-0.123 -0.2,-0.138 -0.465,-0.168 -0.628,-0.11 -1.306,-0.213 -1.751,-1.013 -0.399,-0.717 -0.244,-1.938 0.731,-2.48 1.016,-0.564 2.074,-0.318 2.646,0.71 0.752,1.354 -0.34,3.948 0.63,5.695 0.942,1.693 3.401,1.62 5.027,0.717 C 4.098,0.772 4.79,-0.056 4.361,-0.828 3.827,-1.789 1.832,-2.029 1.345,-1.758 1.223,-1.69 1.175,-1.521 1.228,-1.427 1.28,-1.332 1.352,-1.3 1.584,-1.199 2.001,-1.022 2.59,-0.729 2.83,-0.297 3.026,0.056 2.868,0.409 2.476,0.628 1.527,1.154 0.444,0.8 0,0"
               style="fill:#e2493c;fill-opacity:1;fill-rule:nonzero;stroke:none"
               id="path1054" />
          </g>
          <g
             id="g1056"
             transform="translate(310.0713,100.6924)">
            <path
               d="m 0,0 c -0.785,0.437 -2.786,-0.898 -3.418,-2.036 -0.219,-0.393 -0.23,-0.669 0.054,-0.827 0.65,-0.362 2.948,0.967 3.528,2.009 C 0.383,-0.461 0.271,-0.15 0,0 m -1.282,-5.368 c -0.744,0.413 -1.11,1.13 -0.782,1.941 0,0 -1.534,-0.654 -2.563,-0.083 -0.731,0.407 -1.031,1.336 -0.572,2.161 1.085,1.952 3.861,3.12 5.351,2.292 1.097,-0.609 1.122,-1.457 1.122,-1.457 0.407,-0.225 0.872,-0.697 0.609,-1.171 -0.227,-0.406 -1.87,-1.513 -2.382,-2.434 -0.121,-0.218 -0.063,-0.462 0.168,-0.591 0.731,-0.406 2.097,0.359 2.097,0.359 0,0 0.213,0.13 0.376,0.039 0.149,-0.083 0.217,-0.279 0.134,-0.427 -0.068,-0.123 -0.302,-0.258 -0.302,-0.258 0,0 -1.915,-1.117 -3.256,-0.371"
               style="fill:#e2493c;fill-opacity:1;fill-rule:nonzero;stroke:none"
               id="path1058" />
          </g>
          <g
             id="g1060"
             transform="translate(319.6846,100.5967)">
            <path
               d="m 0,0 c -0.487,0.271 -3.131,-1.486 -4.943,-3.439 1.363,0.252 4.541,2.333 5.001,3.159 C 0.124,-0.159 0.095,-0.053 0,0 m -7.947,-4.253 c 1.512,2.724 6.203,6.41 8.153,5.326 0.609,-0.339 0.792,-1.256 0.521,-1.743 -0.64,-1.151 -4.391,-3.179 -6.385,-3.577 0,0 -0.417,-0.496 -0.681,-0.971 -0.347,-0.623 -0.283,-1.242 0.273,-1.551 0.73,-0.406 2.095,0.359 2.095,0.359 0,0 0.214,0.13 0.377,0.04 0.149,-0.083 0.217,-0.28 0.134,-0.429 -0.067,-0.122 -0.303,-0.258 -0.303,-0.258 0,0 -1.914,-1.116 -3.256,-0.371 -1.069,0.595 -1.636,1.903 -0.928,3.175"
               style="fill:#e2493c;fill-opacity:1;fill-rule:nonzero;stroke:none"
               id="path1062" />
          </g>
          <g
             id="g1064"
             transform="translate(320.4346,94.7012)">
            <path
               d="M 0,0 C 0.098,0.177 0.056,0.324 -0.094,0.407 -0.838,0.821 -2.385,-0.145 -2.777,-0.85 -1.788,-1.399 -0.316,-0.568 0,0 m -0.806,-3.362 c 0,0 0.268,0.097 0.403,0.022 0.163,-0.091 0.217,-0.279 0.134,-0.428 -0.068,-0.123 -0.357,-0.227 -0.357,-0.227 0,0 -1.533,-0.654 -2.996,0.158 -1.368,0.761 -1.89,2.15 -1.249,3.302 1.151,2.071 3.631,2.483 4.809,1.828 0.827,-0.459 1.098,-1.532 0.7,-2.25 -0.362,-0.65 -1.616,-1.726 -3.322,-0.777 -0.149,0.083 -0.469,0.368 -0.469,0.368 -0.445,-0.8 -0.116,-1.516 0.535,-1.877 0.826,-0.459 1.524,-0.191 1.812,-0.119"
               style="fill:#e2493c;fill-opacity:1;fill-rule:nonzero;stroke:none"
               id="path1066" />
          </g>
          <g
             id="g1068"
             transform="translate(325.2041,123.625)">
            <path
               d="m 0,0 -2.266,1.059 c 2.214,4.736 9.739,20.286 13.618,21.542 0.752,0.243 1.322,0.063 1.67,-0.13 0.666,-0.37 1.136,-0.991 1.357,-1.792 0.941,-3.412 -2.908,-10.316 -3.69,-11.665 l -2.164,1.253 c 1.725,2.98 3.934,7.974 3.444,9.747 -0.014,0.051 -0.03,0.093 -0.044,0.127 C 9.851,19.03 4.218,9.022 0,0"
               style="fill:#6fb893;fill-opacity:1;fill-rule:nonzero;stroke:none"
               id="path1070" />
          </g>
          <g
             id="g1072"
             transform="translate(330.9463,99.8223)">
            <path
               d="M 0,0 -31.169,17.324 -29.954,19.51 1.215,2.186 Z"
               style="fill:#e2493c;fill-opacity:1;fill-rule:nonzero;stroke:none"
               id="path1074" />
          </g>
          <g
             id="g1076"
             transform="translate(320.7246,81.4326)">
            <path
               d="M 0,0 -31.169,17.324 -29.954,19.51 1.215,2.186 Z"
               style="fill:#e2493c;fill-opacity:1;fill-rule:nonzero;stroke:none"
               id="path1078" />
          </g>
        </g>
      </g>
    </g>
  </g>
</svg>
