<?xml version="1.0" standalone="no"?>
<!DOCTYPE svg PUBLIC "-//W3C//DTD SVG 20010904//EN"
 "http://www.w3.org/TR/2001/REC-SVG-20010904/DTD/svg10.dtd">
<svg version="1.0" xmlns="http://www.w3.org/2000/svg"
 width="24.000000pt" height="24.000000pt" viewBox="0 0 24.000000 24.000000"
 preserveAspectRatio="xMidYMid meet">

<g transform="translate(0.000000,24.000000) scale(0.100000,-0.100000)"
fill="#000000" stroke="none">
<path d="M94 230 c-26 -10 -54 -48 -54 -72 0 -9 11 -29 23 -44 46 -53 130 -23
130 46 0 51 -53 88 -99 70z m76 -98 c0 -16 -25 -32 -50 -32 -25 0 -50 16 -50
32 0 4 23 8 50 8 28 0 50 -4 50 -8z"/>
<path d="M28 31 l-20 -26 56 -3 c31 -2 81 -2 112 0 l56 3 -20 25 c-18 22 -28
25 -92 26 -65 0 -73 -2 -92 -25z"/>
</g>
</svg>
